<svg width="376" height="142" viewBox="0 0 376 142" fill="none" xmlns="http://www.w3.org/2000/svg">
<g clip-path="url(#clip0_203_10)">
<path d="M22.58 18.2598L75.13 20.4198L86.21 66.6498L78.21 116.85L45.55 127.35L22.58 122.79V18.2598Z" fill="#F15A24"/>
<path d="M148.748 39.3542C159.515 39.3542 168.02 40.6715 174.263 43.3061C180.506 45.8834 184.858 49.4916 187.321 54.1308C189.841 58.7126 191.101 64.3541 191.101 71.055C191.101 77.4124 189.669 82.9679 186.806 87.7216C183.942 92.4753 179.647 96.1694 173.919 98.804C168.192 101.381 161.147 102.67 152.785 102.67C147.688 102.67 142.505 102.67 137.236 102.67C131.966 102.67 126.64 102.641 121.256 102.584C121.715 91.3012 121.944 80.7915 121.944 71.055C121.944 61.204 121.715 50.9235 121.256 40.2133C128.072 39.6406 137.236 39.3542 148.748 39.3542ZM155.191 85.5738C160.517 85.5738 164.068 84.2852 165.844 81.7079C167.619 79.1306 168.507 75.5796 168.507 71.055C168.507 66.7023 167.562 63.18 165.672 60.4881C163.839 57.7963 160.345 56.4503 155.191 56.4503C149.635 56.4503 145.483 56.6222 142.734 56.9658V85.5738H155.191ZM253.006 88.4089C253.006 90.3562 253.235 91.7307 253.693 92.5325C254.152 93.3344 255.068 93.9071 256.442 94.2507L256.099 102.326C254.266 102.613 252.662 102.813 251.288 102.928C249.971 103.042 248.195 103.099 245.961 103.099C241.036 103.099 237.771 102.011 236.168 99.8349C234.564 97.6012 233.762 94.7662 233.762 91.3298V89.1821C232.101 93.8785 229.667 97.3721 226.46 99.6631C223.31 101.954 219.272 103.099 214.347 103.099C208.619 103.099 204.295 101.954 201.374 99.6631C198.51 97.3721 197.079 93.9644 197.079 89.4398C197.079 85.717 198.31 82.7961 200.773 80.677C203.236 78.5578 207.044 77.0974 212.199 76.2955C207.846 73.2028 203.493 70.5109 199.14 68.22C202.577 63.8672 206.5 60.574 210.91 58.3404C215.32 56.0494 220.675 54.904 226.975 54.904C235.795 54.904 242.325 56.8226 246.563 60.6599C250.858 64.44 253.006 70.2818 253.006 78.1856V88.4089ZM228.779 70.0241C225.858 70.0241 223.281 70.5109 221.048 71.4846C218.814 72.4582 216.809 73.9187 215.034 75.866C218.47 75.4651 222.766 75.2646 227.92 75.2646C230.039 75.2646 231.529 75.0069 232.388 74.4914C233.247 73.976 233.676 73.3173 233.676 72.5155C233.676 71.8282 233.247 71.2555 232.388 70.7973C231.529 70.2818 230.326 70.0241 228.779 70.0241ZM219.759 89.0961C222.966 89.0961 225.858 88.4948 228.436 87.292C231.013 86.032 232.789 84.3997 233.762 82.3952V80.1615C232.388 80.8488 230.87 81.3929 229.209 81.7938C227.548 82.1374 225.543 82.4811 223.195 82.8247L220.103 83.3402C216.895 83.9702 215.292 85.0584 215.292 86.6048C215.292 88.2657 216.781 89.0961 219.759 89.0961ZM273.127 50.6944C269.519 50.6944 266.827 49.8066 265.052 48.0312C263.333 46.2557 262.474 43.9361 262.474 41.0724C262.474 38.2661 263.333 35.9465 265.052 34.1137C266.827 32.281 269.519 31.3646 273.127 31.3646C276.564 31.3646 279.198 32.3096 281.031 34.1996C282.864 36.0324 283.78 38.3233 283.78 41.0724C283.78 43.9361 282.892 46.2557 281.117 48.0312C279.341 49.8066 276.678 50.6944 273.127 50.6944ZM263.162 102.67C263.562 93.4489 263.763 85.8316 263.763 79.8179C263.763 72.6587 263.534 64.6404 263.076 55.7631H283.694C283.236 64.2968 283.007 72.3151 283.007 79.8179C283.007 86.1179 283.207 93.7353 283.608 102.67H263.162ZM311.671 68.3059C311.614 71.7423 311.585 77.0115 311.585 84.1134C311.585 92.6471 311.643 98.8326 311.757 102.67H291.482L291.568 92.9621C291.683 82.3092 291.74 74.0905 291.74 68.3059C291.74 62.8077 291.683 55.0185 291.568 44.9384L291.482 35.6601H311.757C311.643 43.7929 311.585 50.4366 311.585 55.5912C311.585 61.3186 311.614 65.5568 311.671 68.3059ZM375.194 55.7631L373.218 60.7458C367.777 75.236 362.078 89.2107 356.122 102.67C353.029 109.543 348.561 115.041 342.72 119.165C336.878 123.346 329.547 125.35 320.727 125.178C319.638 120.425 318.722 116.702 317.977 114.01C317.29 111.375 316.374 108.712 315.228 106.02C318.378 106.765 321.328 107.137 324.077 107.137C328.544 107.137 332.095 106.192 334.73 104.302C332.668 98.174 330.234 91.5875 327.428 84.5429C324.621 77.4983 320.555 67.905 315.228 55.7631H335.589C336.276 58.6267 337.221 61.9486 338.424 65.7286C339.627 69.5087 340.83 73.1455 342.032 76.6392C342.376 77.7274 342.92 79.3883 343.665 81.622C344.466 83.7984 345.096 85.6311 345.555 87.1202L347.788 80.3333C352.084 67.905 354.632 59.7149 355.434 55.7631H375.194Z" fill="black"/>
<path d="M159.88 127.65C158.432 127.677 156.993 127.412 155.65 126.87C154.453 126.376 153.374 125.637 152.48 124.7C151.614 123.784 150.934 122.707 150.48 121.53C150.011 120.343 149.773 119.077 149.78 117.8C149.765 116.094 150.181 114.412 150.99 112.91C151.795 111.417 153 110.177 154.47 109.33C156.11 108.406 157.969 107.943 159.85 107.99C161.724 107.939 163.575 108.406 165.2 109.34C166.618 110.179 167.761 111.413 168.49 112.89L163.73 114.36C163.342 113.674 162.771 113.11 162.08 112.73C161.339 112.335 160.507 112.14 159.668 112.162C158.828 112.185 158.009 112.426 157.29 112.86C156.516 113.352 155.887 114.043 155.47 114.86C154.999 115.788 154.768 116.82 154.8 117.86C154.781 118.883 155.011 119.896 155.47 120.81C155.89 121.625 156.518 122.315 157.29 122.81C157.914 123.196 158.617 123.434 159.346 123.507C160.076 123.58 160.812 123.485 161.5 123.23C162.012 123.036 162.488 122.759 162.91 122.41C163.301 122.1 163.618 121.707 163.84 121.26L168.6 122.72C168.143 123.696 167.489 124.568 166.68 125.28C165.802 126.059 164.784 126.663 163.68 127.06C162.459 127.485 161.172 127.685 159.88 127.65Z" fill="black"/>
<path d="M180.31 127.65C178.87 127.673 177.441 127.4 176.11 126.85C174.92 126.348 173.845 125.61 172.95 124.68C172.081 123.781 171.401 122.717 170.95 121.55C170.496 120.366 170.265 119.108 170.27 117.84C170.262 116.542 170.492 115.254 170.95 114.04C171.394 112.851 172.082 111.769 172.968 110.861C173.855 109.954 174.922 109.241 176.1 108.77C178.803 107.73 181.796 107.73 184.5 108.77C185.679 109.246 186.747 109.96 187.638 110.867C188.529 111.773 189.224 112.853 189.68 114.04C190.146 115.252 190.38 116.541 190.37 117.84C190.376 119.109 190.142 120.368 189.68 121.55C189.217 122.711 188.539 123.773 187.68 124.68C186.781 125.61 185.703 126.349 184.51 126.85C183.18 127.402 181.75 127.674 180.31 127.65ZM175.31 117.84C175.296 118.849 175.522 119.846 175.97 120.75C176.379 121.57 177.005 122.262 177.78 122.75C178.544 123.228 179.429 123.478 180.33 123.47C181.225 123.477 182.101 123.22 182.85 122.73C183.617 122.232 184.241 121.543 184.66 120.73C185.129 119.826 185.363 118.818 185.34 117.8C185.359 116.795 185.125 115.801 184.66 114.91C184.241 114.097 183.617 113.408 182.85 112.91C182.089 112.427 181.206 112.171 180.305 112.171C179.404 112.171 178.521 112.427 177.76 112.91C176.999 113.409 176.382 114.099 175.97 114.91C175.51 115.817 175.276 116.823 175.29 117.84H175.31Z" fill="black"/>
<path d="M193.41 120.18V108.28H198.36V119.1C198.277 120.247 198.557 121.391 199.16 122.37C199.433 122.738 199.794 123.032 200.21 123.226C200.625 123.42 201.082 123.507 201.54 123.48C202.188 123.474 202.83 123.345 203.43 123.1C204.069 122.834 204.653 122.451 205.15 121.97C205.705 121.422 206.155 120.778 206.48 120.07V108.28H211.48V121.81C211.446 122.19 211.534 122.572 211.73 122.9C211.963 123.138 212.278 123.277 212.61 123.29V127.29C212.12 127.37 211.71 127.42 211.38 127.46C211.05 127.5 210.76 127.46 210.49 127.46C209.739 127.493 208.997 127.279 208.38 126.85C207.843 126.457 207.484 125.867 207.38 125.21L207.27 123.69C206.454 124.936 205.322 125.943 203.99 126.61C202.607 127.291 201.082 127.633 199.54 127.61C198.691 127.665 197.841 127.522 197.056 127.192C196.272 126.863 195.575 126.355 195.02 125.71C193.865 124.106 193.297 122.153 193.41 120.18Z" fill="black"/>
<path d="M227.72 112.35C226.341 112.348 224.977 112.641 223.72 113.21C222.609 113.696 221.703 114.556 221.16 115.64V127.28H216.29V108.28H220.79V112.2C221.399 110.967 222.298 109.899 223.41 109.09C224.386 108.365 225.548 107.932 226.76 107.84C226.953 107.859 227.147 107.859 227.34 107.84C227.479 107.828 227.62 107.849 227.75 107.9L227.72 112.35Z" fill="black"/>
<path d="M237.49 127.65C235.888 127.655 234.298 127.381 232.79 126.84C231.35 126.346 230.041 125.532 228.96 124.46L230.76 121.28C231.756 122.133 232.88 122.825 234.09 123.33C235.111 123.755 236.204 123.979 237.31 123.99C238.104 124.024 238.893 123.852 239.6 123.49C239.868 123.349 240.091 123.136 240.243 122.874C240.395 122.612 240.47 122.313 240.46 122.01C240.473 121.802 240.436 121.594 240.352 121.402C240.269 121.211 240.141 121.043 239.98 120.91C239.568 120.61 239.103 120.389 238.61 120.26L236.43 119.63C235.225 119.268 234.046 118.827 232.9 118.31C232.057 117.943 231.321 117.368 230.76 116.64C230.243 115.897 229.984 115.005 230.02 114.1C230.002 112.942 230.352 111.807 231.02 110.86C231.713 109.922 232.65 109.192 233.73 108.75C235.026 108.216 236.419 107.957 237.82 107.99C239.14 107.981 240.452 108.198 241.7 108.63C242.945 109.075 244.08 109.781 245.03 110.7L243.03 113.85C242.207 113.147 241.283 112.571 240.29 112.14C239.442 111.795 238.536 111.615 237.62 111.61C237.131 111.606 236.643 111.667 236.17 111.79C235.757 111.889 235.377 112.096 235.07 112.39C234.923 112.546 234.81 112.73 234.738 112.931C234.665 113.133 234.635 113.347 234.65 113.56C234.643 113.932 234.783 114.291 235.04 114.56C235.37 114.879 235.771 115.115 236.21 115.25C236.73 115.44 237.37 115.66 238.13 115.9C239.449 116.257 240.745 116.695 242.01 117.21C242.933 117.57 243.756 118.146 244.41 118.89C244.997 119.679 245.287 120.649 245.23 121.63C245.267 122.477 245.096 123.32 244.732 124.086C244.368 124.851 243.821 125.515 243.14 126.02C241.492 127.181 239.503 127.755 237.49 127.65Z" fill="black"/>
<path d="M257.41 127.65C255.982 127.671 254.564 127.406 253.24 126.87C252.063 126.398 250.995 125.69 250.101 124.791C249.207 123.892 248.505 122.819 248.04 121.64C247.566 120.454 247.329 119.187 247.34 117.91C247.325 116.185 247.748 114.486 248.57 112.97C249.377 111.467 250.58 110.215 252.05 109.35C253.689 108.405 255.559 107.935 257.45 107.99C259.322 107.934 261.173 108.405 262.79 109.35C264.235 110.211 265.423 111.444 266.23 112.92C267.038 114.397 267.455 116.056 267.44 117.74C267.456 118.036 267.456 118.333 267.44 118.63C267.44 118.91 267.44 119.15 267.37 119.34H252.54C252.585 120.25 252.867 121.133 253.36 121.9C253.825 122.586 254.454 123.147 255.19 123.53C255.923 123.906 256.736 124.101 257.56 124.1C258.54 124.104 259.504 123.856 260.36 123.38C261.164 122.976 261.793 122.294 262.13 121.46L266.31 122.63C265.858 123.626 265.196 124.513 264.37 125.23C263.489 126.004 262.472 126.608 261.37 127.01C260.099 127.457 258.758 127.674 257.41 127.65ZM252.41 116.26H262.41C262.333 115.379 262.048 114.529 261.58 113.78C261.145 113.084 260.535 112.515 259.81 112.13C259.051 111.732 258.206 111.53 257.35 111.54C256.516 111.529 255.693 111.733 254.96 112.13C254.242 112.516 253.638 113.086 253.21 113.78C252.745 114.53 252.464 115.38 252.39 116.26H252.41Z" fill="black"/>
<path d="M62.66 18.26C66.9099 18.2585 71.1282 18.9892 75.13 20.42C71.7094 15.6561 67.2055 11.7735 61.9894 9.0925C56.7734 6.41146 50.9947 5.00872 45.13 5H5V122.79H22.57V18.26H62.66Z" fill="#FFBB54" stroke="black" stroke-width="10" stroke-miterlimit="10"/>
<path d="M75.1299 20.4199C79.6783 26.6962 82.1282 34.2488 82.1299 41.9999V85.7899C82.1299 95.6029 78.2318 105.014 71.2929 111.953C64.3541 118.892 54.943 122.79 45.1299 122.79H22.5699V136.05H62.66C72.473 136.05 81.8841 132.152 88.8229 125.213C95.7618 118.274 99.66 108.863 99.66 99.0499V55.2599C99.6609 47.6325 97.3046 40.1911 92.9135 33.9545C88.5224 27.7178 82.3111 22.9906 75.1299 20.4199Z" fill="#FFBB54" stroke="black" stroke-width="10" stroke-miterlimit="10"/>
<path d="M131.21 127.35C137.009 127.35 141.71 122.649 141.71 116.85C141.71 111.051 137.009 106.35 131.21 106.35C125.411 106.35 120.71 111.051 120.71 116.85C120.71 122.649 125.411 127.35 131.21 127.35Z" fill="black"/>
</g>
<defs>
<clipPath id="clip0_203_10">
<rect width="375.21" height="141.05" fill="white"/>
</clipPath>
</defs>
</svg>
